<svg width="70" height="70" viewBox="0 0 70 70" fill="none" xmlns="http://www.w3.org/2000/svg">
<path d="M69.8408 41.6948C69.639 41.3582 69.2753 41.1524 68.883 41.1524H49.0051C48.3882 41.1524 47.8881 41.6523 47.8881 42.2694C47.8881 42.8864 48.3882 43.3864 49.0051 43.3864H67.0213L66.651 44.0806C66.2115 44.9044 64.4745 45.826 62.8073 45.826H44.887C45.38 44.4848 45.654 43.0224 45.654 41.4906C45.654 39.34 45.1169 37.325 44.1851 35.5936H54.3692C54.986 35.5936 55.4862 35.0936 55.4862 34.4766C55.4862 33.8596 54.986 33.3596 54.3692 33.3596H42.625C41.4476 32.0378 39.987 31.0211 38.3511 30.4263V19.1712C38.3511 17.3826 37.2419 15.7748 35.4565 14.9752C35.1661 14.8452 34.8338 14.8452 34.5434 14.9752C32.7579 15.7748 31.6488 17.3826 31.6488 19.1712V30.4263C30.0129 31.0211 28.5523 32.0378 27.3749 33.3596H15.6309C15.014 33.3596 14.5138 33.8596 14.5138 34.4766C14.5138 35.0936 15.014 35.5936 15.6309 35.5936H25.815C24.8831 37.325 24.346 39.34 24.346 41.4906C24.346 43.0224 24.6201 44.4848 25.113 45.826H7.19258C5.52554 45.826 3.78835 44.9044 3.34884 44.0806L2.97873 43.3864H21.0209C21.6378 43.3864 22.1379 42.8864 22.1379 42.2694C22.1379 41.6523 21.6378 41.1524 21.0209 41.1524H1.11703C0.724733 41.1524 0.361031 41.3582 0.159222 41.6948C-0.0425861 42.0312 -0.0531605 42.4489 0.131371 42.7951L1.37767 45.1319C2.25341 46.7738 4.80767 48.06 7.19258 48.06H11.9718C11.5421 48.764 11.2943 49.5906 11.2943 50.4741C11.2943 53.037 13.3794 55.1221 15.9423 55.1221C18.5052 55.1221 20.5904 53.037 20.5904 50.4741C20.5904 49.5906 20.3426 48.764 19.9129 48.06H26.2041C28.1251 51.1299 31.3506 53.1489 34.9999 53.1489C38.6491 53.1489 41.8748 51.1299 43.7956 48.06H50.0868C49.6571 48.764 49.4093 49.5906 49.4093 50.4741C49.4093 53.037 51.4944 55.1221 54.0574 55.1221C56.6205 55.1221 58.7054 53.037 58.7054 50.4741C58.7054 49.5906 58.4576 48.764 58.0279 48.06H62.8071C65.192 48.06 67.7463 46.7738 68.622 45.1319L69.8683 42.7951C70.0532 42.4489 70.0428 42.0312 69.8408 41.6948ZM18.3565 50.4741C18.3565 51.8053 17.2736 52.8881 15.9424 52.8881C14.6112 52.8881 13.5285 51.8052 13.5285 50.4741C13.5285 49.1431 14.6114 48.06 15.9424 48.06C17.2735 48.06 18.3565 49.1431 18.3565 50.4741ZM33.883 19.1712C33.883 18.4258 34.3005 17.7283 35 17.2645C35.6996 17.7281 36.117 18.4258 36.117 19.1712V29.8964C35.7498 29.8544 35.3773 29.832 35 29.832C34.6228 29.832 34.2503 29.8544 33.883 29.8964V19.1712ZM35 50.9148C30.3572 50.9148 26.5801 46.6871 26.5801 41.4906C26.5801 36.2941 30.3572 32.0662 35 32.0662C39.6428 32.0662 43.42 36.2941 43.42 41.4906C43.42 46.6871 39.6428 50.9148 35 50.9148ZM56.4717 50.4741C56.4717 51.8053 55.3888 52.8881 54.0577 52.8881C52.7267 52.8881 51.6436 51.8052 51.6436 50.4741C51.6436 49.1431 52.7265 48.06 54.0577 48.06C55.3889 48.06 56.4717 49.1431 56.4717 50.4741Z" fill="#E7F3FB"/>
<path d="M39.3491 37.2578H30.6509C30.034 37.2578 29.5339 37.7578 29.5339 38.3748C29.5339 38.9919 30.034 39.4919 30.6509 39.4919H39.3491C39.966 39.4919 40.4661 38.9919 40.4661 38.3748C40.4661 37.7578 39.966 37.2578 39.3491 37.2578Z" fill="#E7F3FB"/>
</svg>
