<svg width="70" height="70" viewBox="0 0 70 70" fill="none" xmlns="http://www.w3.org/2000/svg">
<path d="M69.8407 41.6948C69.6389 41.3582 69.2752 41.1524 68.8829 41.1524H49.005C48.3881 41.1524 47.888 41.6524 47.888 42.2694C47.888 42.8865 48.3881 43.3864 49.005 43.3864H67.0212L66.651 44.0806C66.2115 44.9044 64.4744 45.826 62.8072 45.826H44.8869C45.3799 44.4848 45.6539 43.0224 45.6539 41.4906C45.6539 39.34 45.1169 37.325 44.185 35.5937H54.3691C54.986 35.5937 55.4861 35.0937 55.4861 34.4766C55.4861 33.8596 54.986 33.3596 54.3691 33.3596H42.6249C41.4475 32.0378 39.9869 31.0212 38.351 30.4263V19.1712C38.351 17.3826 37.2419 15.7749 35.4564 14.9752C35.166 14.8452 34.8337 14.8452 34.5433 14.9752C32.7579 15.7749 31.6487 17.3826 31.6487 19.1712V30.4263C30.0128 31.0212 28.5522 32.0378 27.3749 33.3596H15.6308C15.0139 33.3596 14.5138 33.8596 14.5138 34.4766C14.5138 35.0937 15.0139 35.5937 15.6308 35.5937H25.8149C24.883 37.325 24.3459 39.34 24.3459 41.4906C24.3459 43.0224 24.62 44.4848 25.113 45.826H7.19252C5.52548 45.826 3.78829 44.9044 3.34878 44.0806L2.97867 43.3864H21.0208C21.6377 43.3864 22.1378 42.8865 22.1378 42.2694C22.1378 41.6524 21.6377 41.1524 21.0208 41.1524H1.11697C0.724672 41.1524 0.36097 41.3582 0.159161 41.6948C-0.0426471 42.0313 -0.0532215 42.4489 0.13131 42.7952L1.37761 45.132C2.25335 46.7738 4.80761 48.0601 7.19252 48.0601H11.9717C11.5421 48.7641 11.2942 49.5907 11.2942 50.4742C11.2942 53.0371 13.3793 55.1222 15.9422 55.1222C18.5051 55.1222 20.5904 53.0371 20.5904 50.4742C20.5904 49.5907 20.3425 48.7641 19.9129 48.0601H26.2041C28.1251 51.1299 31.3506 53.1489 34.9998 53.1489C38.649 53.1489 41.8747 51.1299 43.7955 48.0601H50.0867C49.6571 48.7641 49.4092 49.5907 49.4092 50.4742C49.4092 53.0371 51.4943 55.1222 54.0574 55.1222C56.6204 55.1222 58.7054 53.0371 58.7054 50.4742C58.7054 49.5907 58.4575 48.7641 58.0279 48.0601H62.8071C65.192 48.0601 67.7462 46.7738 68.622 45.132L69.8683 42.7952C70.0531 42.4489 70.0427 42.0313 69.8407 41.6948ZM18.3565 50.4742C18.3565 51.8054 17.2736 52.8881 15.9424 52.8881C14.6112 52.8881 13.5284 51.8052 13.5284 50.4742C13.5284 49.1431 14.6113 48.0601 15.9424 48.0601C17.2734 48.0601 18.3565 49.1431 18.3565 50.4742ZM33.8829 19.1712C33.8829 18.4258 34.3004 17.7283 34.9999 17.2645C35.6995 17.7282 36.117 18.4258 36.117 19.1712V29.8964C35.7497 29.8544 35.3772 29.8321 34.9999 29.8321C34.6227 29.8321 34.2502 29.8544 33.8829 29.8964V19.1712ZM34.9999 50.9149C30.3572 50.9149 26.58 46.6872 26.58 41.4906C26.58 36.2941 30.3572 32.0663 34.9999 32.0663C39.6427 32.0663 43.4199 36.2941 43.4199 41.4906C43.4199 46.6872 39.6427 50.9149 34.9999 50.9149ZM56.4716 50.4742C56.4716 51.8054 55.3887 52.8881 54.0577 52.8881C52.7266 52.8881 51.6436 51.8052 51.6436 50.4742C51.6436 49.1431 52.7265 48.0601 54.0577 48.0601C55.3889 48.0601 56.4716 49.1431 56.4716 50.4742Z" fill="#193A67"/>
<path d="M39.349 37.2579H30.6508C30.0339 37.2579 29.5338 37.7579 29.5338 38.3749C29.5338 38.9919 30.0339 39.4919 30.6508 39.4919H39.349C39.9659 39.4919 40.466 38.9919 40.466 38.3749C40.466 37.7579 39.9659 37.2579 39.349 37.2579Z" fill="#193A67"/>
</svg>
